<?xml version="1.0" ?><svg enable-background="new 0 0 32 32" version="1.1" viewBox="0 0 32 32" xml:space="preserve" xmlns="http://www.w3.org/2000/svg" xmlns:xlink="http://www.w3.org/1999/xlink"><g id="Full"><g><linearGradient gradientUnits="userSpaceOnUse" id="SVGID_2_" x1="16" x2="16" y1="32" y2="0"><stop offset="0" style="stop-color:#FF2D76"/><stop offset="1" style="stop-color:#FB0000"/></linearGradient><path d="M14.796,16.836c-0.765-0.708-1.615-1.701-1.983-2.579c-0.057-0.113-0.17-0.397,0-0.623    c0.34-0.454,0.397-0.482,0.765-0.907c0.255-0.312,0.453-0.595,0.368-0.851L12.671,8.56c-0.114-0.227-0.453-0.255-0.85-0.284    c-0.34,0-0.708,0-0.963,0.057c-0.566,0.199-1.728,1.729-1.869,2.835c-0.312,2.409,1.869,5.612,4.051,7.596    c2.182,2.013,5.553,3.912,7.932,3.373c1.105-0.255,2.522-1.53,2.635-2.126c0.057-0.255,0.028-0.623-0.028-0.964    c-0.028-0.396-0.113-0.68-0.341-0.793l-2.889-1.333c-0.256-0.142-0.51-0.028-0.765,0.284c-0.311,0.425-0.454,0.595-0.822,1.049    c-0.198,0.255-0.34,0.425-0.566,0.453c-0.256,0.057-0.595-0.085-0.652-0.085C16.637,18.31,15.589,17.545,14.796,16.836    L14.796,16.836z M5.278,27.011l1.643-4.167c-1.813-2.097-2.918-4.847-2.918-7.851c0-6.632,5.382-11.989,12.012-11.989    c6.629,0,11.983,5.357,11.983,11.989c0,6.633-5.354,12.018-11.983,12.018c-2.663,0-5.1-0.851-7.082-2.324L5.278,27.011z     M3.266,22.93L1,32l8.102-3.685c2.068,1.077,4.419,1.701,6.913,1.701C24.285,30.016,31,23.298,31,14.994    C31,6.718,24.285,0,16.014,0C7.714,0,1,6.718,1,14.993C1,17.913,1.85,20.634,3.266,22.93L3.266,22.93z" fill="url(#SVGID_2_)"/></g></g></svg>